<svg width="20" height="20" viewBox="0 0 20 20" fill="none" xmlns="http://www.w3.org/2000/svg">
<path d="M20 20H10.0588H0V9.90196V0H9.92484H20V10V20Z" fill="#FEFEFE"/>
<path fill-rule="evenodd" clip-rule="evenodd" d="M0 20V0H20V3.22222H17.0523L16.3889 5.0817L15.7288 3.22222H11.9281V5.68954L10.8301 3.22222H7.75817L4.57516 10.4281H7.14052V16.8301H15.098L16.3464 15.4575L17.5882 16.8301H20V20H0ZM16.3562 14.2222L14.7092 16.0294H12.7549L15.3954 13.232L12.7549 10.4314H14.7647L16.3856 12.2222L18.0261 10.4314H20L17.3464 13.2157L20 16.0294H17.9935L16.3562 14.2222ZM20.0033 11.5948V14.8529L18.4641 13.2157L20.0033 11.5948ZM12.7614 14.7353V16.0294H7.99346V10.4314H12.7614V11.7288H9.52288V12.598H12.6797V13.8627H9.52288V14.7353H12.7614ZM18.4935 5.69608L17.0556 9.62092H15.7124L14.2712 5.70261V9.62092H12.7614V4.02288H15.1503L16.3987 7.5098L17.6536 4.02288H20.0033V9.62092H18.4935V5.69608ZM10.5686 8.50327H7.99346L7.53268 9.62092H5.85294L8.32353 4.02614H10.2908L12.7614 9.62092H11.0425L10.5686 8.50327ZM9.28105 5.4183L8.51961 7.24837H10.0392L9.28105 5.4183Z" fill="#0079C0"/>
</svg>
