<svg width="20" height="19" viewBox="0 0 20 19" fill="none" xmlns="http://www.w3.org/2000/svg">
<path d="M16.9448 8.16663V8.16663C17.7118 8.16663 18.3337 7.5448 18.3337 6.77774V6.5704C18.3337 6.0097 18.0395 5.49012 17.5587 5.20164L11.0293 1.28402C10.396 0.904002 9.6047 0.904001 8.97134 1.28402L2.44197 5.20164C1.96118 5.49012 1.66699 6.0097 1.66699 6.5704V6.77774C1.66699 7.5448 2.28882 8.16663 3.05588 8.16663V8.16663M16.9448 8.16663V14M16.9448 8.16663H13.4725M3.05588 8.16663V14M3.05588 8.16663H6.5281M3.05588 14H6.5281M3.05588 14V14C2.28882 14 1.66699 14.6218 1.66699 15.3888V15.6666C1.66699 16.5871 2.41318 17.3333 3.33366 17.3333H16.667C17.5875 17.3333 18.3337 16.5871 18.3337 15.6666V15.3888C18.3337 14.6218 17.7118 14 16.9448 14V14M16.9448 14H13.4725M10.0003 8.16663V14M10.0003 8.16663H6.5281M10.0003 8.16663H13.4725M10.0003 14H6.5281M10.0003 14H13.4725M6.5281 8.16663V14M13.4725 8.16663V14" stroke="#550086" stroke-width="2"/>
</svg>
