<svg width="20" height="20" viewBox="0 0 20 20" fill="none" xmlns="http://www.w3.org/2000/svg">
<path d="M14.5 4.75H13.5V5.75H14.5V4.75ZM18 8.75V15H20V8.75H18ZM15 5.75C16.6569 5.75 18 7.09315 18 8.75H20C20 5.98858 17.7614 3.75 15 3.75V5.75ZM14.5 5.75H15V3.75H14.5V5.75ZM10.75 2C12.2688 2 13.5 3.23122 13.5 4.75H15.5C15.5 2.12665 13.3734 0 10.75 0V2ZM4.75 2H10.75V0H4.75V2ZM2 4.75C2 3.23122 3.23122 2 4.75 2V0C2.12665 0 0 2.12665 0 4.75H2ZM2 15V4.75H0V15H2ZM5 18C3.34314 18 2 16.6569 2 15H0C0 17.7614 2.23858 20 5 20V18ZM15 18H5V20H15V18ZM18 15C18 16.6569 16.6569 18 15 18V20C17.7614 20 20 17.7614 20 15H18ZM14.25 12.25C14.25 12.5262 14.0261 12.75 13.75 12.75V14.75C15.1307 14.75 16.25 13.6307 16.25 12.25H14.25ZM13.75 11.75C14.0261 11.75 14.25 11.9739 14.25 12.25H16.25C16.25 10.8693 15.1307 9.75003 13.75 9.75003V11.75ZM13.25 12.25C13.25 11.9739 13.4739 11.75 13.75 11.75V9.75003C12.3693 9.75003 11.25 10.8693 11.25 12.25H13.25ZM13.75 12.75C13.4739 12.75 13.25 12.5262 13.25 12.25H11.25C11.25 13.6307 12.3693 14.75 13.75 14.75V12.75ZM14.5 3.75H1V5.75H14.5V3.75Z" fill="#550086"/>
</svg>
