<svg width="40" height="40" viewBox="0 0 40 40" fill="none" xmlns="http://www.w3.org/2000/svg">
    <rect width="40" height="40" rx="20" fill="white" fill-opacity="0.1"/> 
    <rect x="0.5" y="0.5" width="39" height="39" rx="19.5" stroke="#550086" stroke-opacity="0.05"/>
    <path d="M29.5 25.1052C29.5 26.3358 28.4825 27.3334 27.2273 27.3334C25.9721 27.3334 24.9545 26.3358 24.9545 25.1052C24.9545 23.8746 25.9721 22.877 27.2273 22.877C28.4825 22.877 29.5 23.8746 29.5 25.1052Z" fill="white" fill-opacity="0.15"/>
    <path d="M21.5 10.6667H13.5C12.3954 10.6667 11.5 11.657 11.5 12.8785V22.889C11.5 24.1106 12.3954 25.1009 13.5 25.1009H14.2273C14.2273 23.8703 15.2448 22.8727 16.5 22.8727C17.7552 22.8727 18.7727 23.8703 18.7727 25.1009L23.5 25.1052V25.1009V14.6774V12.8785C23.5 11.657 22.6046 10.6667 21.5 10.6667Z" fill="white" fill-opacity="0.15"/>
    <path d="M16.5 27.329C17.7552 27.329 18.7727 26.3315 18.7727 25.1009C18.7727 23.8703 17.7552 22.8727 16.5 22.8727C15.2448 22.8727 14.2273 23.8703 14.2273 25.1009C14.2273 26.3315 15.2448 27.329 16.5 27.329Z" fill="white" fill-opacity="0.15"/>
    <path d="M31.5 23.302V19.5926C31.5 18.9812 31.2712 18.3971 30.8679 17.979L28.077 15.2756C27.7063 14.8913 27.2172 14.6774 26.7091 14.6774H23.5V25.1009V25.1052H24.9545C24.9545 23.8746 25.9721 22.877 27.2273 22.877C28.4825 22.877 29.5 23.8746 29.5 25.1052C30.6046 25.1052 31.5 24.5236 31.5 23.302Z" fill="white" fill-opacity="0.15"/>
    <path d="M22 26.1052V26.1009V15.6774M22 26.1052H23.4545M22 26.1052L17.2727 26.1009M28 26.1052C29.1046 26.1052 30 25.5236 30 24.302V20.5926C30 19.9812 29.7712 19.3971 29.3679 18.979L26.577 16.2756C26.2063 15.8913 25.7172 15.6774 25.2091 15.6774H22M28 26.1052C28 27.3358 26.9825 28.3334 25.7273 28.3334C24.4721 28.3334 23.4545 27.3358 23.4545 26.1052M28 26.1052C28 24.8746 26.9825 23.877 25.7273 23.877C24.4721 23.877 23.4545 24.8746 23.4545 26.1052M22 15.6774V13.8785C22 12.657 21.1046 11.6667 20 11.6667H12C10.8954 11.6667 10 12.657 10 13.8785V23.889C10 25.1106 10.8954 26.1009 12 26.1009H12.7273M17.2727 26.1009C17.2727 27.3315 16.2552 28.329 15 28.329C13.7448 28.329 12.7273 27.3315 12.7273 26.1009M17.2727 26.1009C17.2727 24.8703 16.2552 23.8727 15 23.8727C13.7448 23.8727 12.7273 24.8703 12.7273 26.1009" stroke="#550086" stroke-width="2"/>
</svg>

