<svg width="40" height="40" viewBox="0 0 40 40" fill="#8F75C1" xmlns="http://www.w3.org/2000/svg">
<rect width="40" height="40" rx="20" fill="white"/>
<rect x="0.5" y="0.5" width="39" height="39" rx="19.5" stroke="white" stroke-opacity="0.05"/>
<path d="M22.7071 10.096L23.4194 10.7979L23.4337 10.7834L23.4473 10.7684L22.7071 10.096ZM11.0861 21.8897L10.3738 21.1878L10.3595 21.2023L10.3458 21.2173L11.0861 21.8897ZM17.7413 22.802L18.7318 22.9395L18.733 22.9309L18.7341 22.9222L17.7413 22.802ZM16.7926 29.635L15.8021 29.4975L15.8009 29.5061L15.7999 29.5148L16.7926 29.635ZM17.2929 29.904L16.5806 29.2021L16.5663 29.2166L16.5527 29.2316L17.2929 29.904ZM28.9139 18.1103L29.6262 18.8122L29.6405 18.7978L29.6542 18.7827L28.9139 18.1103ZM22.2587 17.198L21.2682 17.0605C21.2674 17.0662 21.2666 17.072 21.2659 17.0778L22.2587 17.198ZM23.2074 10.365L24.1979 10.5025L24.1991 10.4939L24.2001 10.4852L23.2074 10.365ZM21.9948 9.39413L10.3738 21.1878L11.7984 22.5915L23.4194 10.7979L21.9948 9.39413ZM11.2947 23.4381H17.4497V21.4381H11.2947V23.4381ZM16.7508 22.6645L15.8021 29.4975L17.7831 29.7726L18.7318 22.9395L16.7508 22.6645ZM18.0052 30.6059L29.6262 18.8122L28.2016 17.4085L16.5806 29.2021L18.0052 30.6059ZM28.7053 16.5619H22.5503V18.5619H28.7053V16.5619ZM23.2492 17.3355L24.1979 10.5025L22.2169 10.2275L21.2682 17.0605L23.2492 17.3355ZM22.5503 16.5619C23.0701 16.5619 23.288 17.0167 23.2514 17.3182L21.2659 17.0778C21.1827 17.7649 21.6749 18.5619 22.5503 18.5619V16.5619ZM29.6542 18.7827C30.0323 18.3664 30.0696 17.8201 29.9115 17.4044C29.7525 16.9865 29.3323 16.5619 28.7053 16.5619V18.5619C28.3399 18.5619 28.1162 18.3101 28.0422 18.1156C27.9691 17.9234 27.98 17.6513 28.1737 17.438L29.6542 18.7827ZM15.7999 29.5148C15.7311 30.0829 16.0193 30.5986 16.4809 30.8467C16.9588 31.1037 17.6017 31.0513 18.0331 30.5764L16.5527 29.2316C16.7855 28.9753 17.1599 28.941 17.428 29.0852C17.6798 29.2206 17.8172 29.4926 17.7854 29.7553L15.7999 29.5148ZM17.4497 23.4381C16.9299 23.4381 16.712 22.9833 16.7486 22.6818L18.7341 22.9222C18.8173 22.2351 18.3251 21.4381 17.4497 21.4381V23.4381ZM10.3458 21.2173C9.96771 21.6336 9.93037 22.1799 10.0885 22.5956C10.2475 23.0135 10.6677 23.4381 11.2947 23.4381V21.4381C11.6601 21.4381 11.8838 21.6899 11.9578 21.8844C12.0309 22.0766 12.02 22.3487 11.8263 22.562L10.3458 21.2173ZM23.4473 10.7684C23.2145 11.0247 22.8401 11.059 22.572 10.9148C22.3202 10.7794 22.1828 10.5074 22.2146 10.2447L24.2001 10.4852C24.2689 9.91714 23.9807 9.40143 23.5191 9.15327C23.0412 8.89633 22.3983 8.94874 21.9669 9.42363L23.4473 10.7684Z" fill="white"/>
</svg>
