<svg width="40" height="40" viewBox="0 0 40 40" fill="#8F75C1" xmlns="http://www.w3.org/2000/svg">
<rect width="40" height="40" rx="20" fill="white"/>
<rect x="0.5" y="0.5" width="39" height="39" rx="19.5" stroke="white" stroke-opacity="0.05"/>
<path d="M13.1817 19.2424V26.8182C13.1817 27.655 13.86 28.3334 14.6968 28.3334H18.4847M13.1817 19.2424H18.4847M13.1817 19.2424C12.3449 19.2424 11.6665 18.5641 11.6665 17.7273C11.6665 16.8905 12.3449 16.2121 13.1817 16.2121H18.4847M26.818 19.2424V26.8182C26.818 27.655 26.1397 28.3334 25.3029 28.3334H21.515M26.818 19.2424H21.515M26.818 19.2424C27.6548 19.2424 28.3332 18.5641 28.3332 17.7273C28.3332 16.8905 27.6548 16.2121 26.818 16.2121H21.515M21.515 19.2424V28.3334M21.515 19.2424H18.4847M21.515 19.2424V16.2121M21.515 28.3334H18.4847M18.4847 19.2424V28.3334M18.4847 19.2424V16.2121M18.4847 16.2121H21.515M16.9695 16.2121C15.7143 16.2121 14.6968 15.1946 14.6968 13.9394C14.6968 12.6842 15.7143 11.6667 16.9695 11.6667C18.2318 11.6667 18.8796 13.0368 19.2996 14.2271L19.9998 16.2121L20.7001 14.2271C21.12 13.0368 21.7679 11.6667 23.0301 11.6667C24.2853 11.6667 25.3029 12.6842 25.3029 13.9394C25.3029 15.1946 24.2853 16.2121 23.0301 16.2121" stroke="white" stroke-width="2" stroke-linejoin="round"/>
</svg>
