<svg width="26" height="16" viewBox="0 0 26 16" fill="none" xmlns="http://www.w3.org/2000/svg">
<path d="M16.6358 1.70947H9.61426V14.2886H16.6358V1.70947Z" fill="#FF5F00"/>
<path d="M10.0599 7.9995C10.0587 6.78803 10.3341 5.59219 10.8651 4.50251C11.3961 3.41283 12.1689 2.45786 13.1248 1.70991C11.941 0.782277 10.5193 0.205396 9.02216 0.0452019C7.52503 -0.114992 6.0129 0.147961 4.65859 0.804017C3.30429 1.46007 2.16245 2.48276 1.3636 3.75518C0.564744 5.02759 0.141113 6.4984 0.141113 7.9995C0.141113 9.50059 0.564744 10.9714 1.3636 12.2438C2.16245 13.5162 3.30429 14.5389 4.65859 15.195C6.0129 15.851 7.52503 16.114 9.02216 15.9538C10.5193 15.7936 11.941 15.2167 13.1248 14.2891C12.1689 13.5411 11.3962 12.5862 10.8651 11.4965C10.3341 10.4068 10.0588 9.21096 10.0599 7.9995Z" fill="#EB001B"/>
<path d="M26.1078 7.9995C26.1079 9.50057 25.6843 10.9714 24.8855 12.2438C24.0867 13.5162 22.9449 14.5389 21.5906 15.195C20.2363 15.851 18.7242 16.114 17.2271 15.9538C15.73 15.7936 14.3083 15.2167 13.1245 14.2891C14.0796 13.5404 14.8517 12.5853 15.3827 11.4957C15.9136 10.4062 16.1895 9.21077 16.1895 7.9995C16.1895 6.78822 15.9136 5.59276 15.3827 4.50325C14.8517 3.41373 14.0796 2.45862 13.1245 1.70991C14.3083 0.782274 15.73 0.205391 17.2271 0.0451998C18.7242 -0.114992 20.2363 0.147972 21.5906 0.804035C22.9449 1.4601 24.0867 2.48278 24.8855 3.7552C25.6843 5.02762 26.1079 6.49842 26.1078 7.9995Z" fill="#F79E1B"/>
<path d="M25.3423 12.957V12.6995H25.4464V12.647H25.1812V12.6995H25.2854V12.957H25.3423ZM25.8573 12.957V12.6465H25.776L25.6825 12.8601L25.5889 12.6465H25.5075V12.957H25.565V12.7228L25.6527 12.9247H25.7122L25.7999 12.7223V12.957H25.8573Z" fill="#F79E1B"/>
</svg>
