<svg width="70" height="18" viewBox="0 0 70 18" fill="none" xmlns="http://www.w3.org/2000/svg">
<path fill-rule="evenodd" clip-rule="evenodd" d="M22.239 4.02575H26.1019C27.3947 4.02575 28.3683 4.38575 28.9176 5.06723C29.4176 5.68751 29.5829 6.57311 29.4101 7.70063C29.0265 10.2772 27.5579 11.5775 25.0136 11.5775H23.7904C23.5269 11.5775 23.3011 11.7802 23.2608 12.0563L22.8394 14.8776C22.7979 15.1537 22.5733 15.3564 22.309 15.3564H20.4647C20.2665 15.3564 20.1151 15.1706 20.1461 14.964L21.7086 4.50419C21.7497 4.22843 21.9747 4.02539 22.239 4.02539V4.02575ZM24.2511 9.30983C25.2751 9.30983 26.3344 9.30983 26.5454 7.84607C26.6229 7.33199 26.5608 6.95975 26.3579 6.70919C26.0179 6.28943 25.3601 6.28943 24.6622 6.28943H24.3951C24.2372 6.28943 24.1015 6.41111 24.0772 6.57635L23.6683 9.30983H24.2511ZM35.7986 7.79927H37.6483C37.8461 7.79927 37.9969 7.98575 37.9651 8.19167L36.9654 14.8772C36.9236 15.1534 36.7001 15.356 36.4351 15.356H34.769C34.5719 15.356 34.4204 15.1703 34.4511 14.9626L34.534 14.42C34.534 14.42 33.6204 15.5382 31.9733 15.5382C31.014 15.5382 30.2072 15.2459 29.6436 14.5446C29.029 13.7814 28.7776 12.6877 28.9544 11.5436C29.2944 9.25043 31.0401 7.61531 33.0844 7.61531C33.9758 7.61531 34.8686 7.82051 35.2694 8.43431L35.3986 8.63231L35.4808 8.08619C35.4907 8.00785 35.5283 7.93574 35.5867 7.88305C35.6451 7.83036 35.7203 7.80062 35.7986 7.79927ZM32.9829 13.4657C34.0529 13.4657 34.8915 12.7169 35.0701 11.6009C35.1508 11.0605 35.039 10.5702 34.7572 10.2188C34.4758 9.87107 34.0486 9.68675 33.5236 9.68675C32.4701 9.68675 31.6172 10.4608 31.4508 11.567C31.3636 12.1096 31.4676 12.5966 31.7408 12.9394C32.0165 13.2842 32.4458 13.4657 32.9829 13.4657Z" fill="#253B80"/>
<path d="M47.4998 7.79883H45.6412C45.4637 7.79883 45.2973 7.89207 45.1965 8.04723L42.6326 12.0357L41.5462 8.20311C41.4776 7.96335 41.268 7.79883 41.0308 7.79883H39.2044C38.9823 7.79883 38.828 8.02779 38.8987 8.24883L40.9462 14.5938L39.0212 17.463C38.8698 17.6895 39.0223 18.0001 39.284 18.0001H41.1405C41.3165 18.0001 41.4815 17.9094 41.5815 17.7568L47.7644 8.33271C47.9123 8.10735 47.7605 7.79883 47.4998 7.79883Z" fill="#253B80"/>
<path fill-rule="evenodd" clip-rule="evenodd" d="M49.7915 4.02575H53.6551C54.9479 4.02575 55.9212 4.38575 56.4694 5.06723C56.9694 5.68751 57.1362 6.57311 56.9626 7.70063C56.5787 10.2772 55.1104 11.5775 52.5654 11.5775H51.3429C51.0794 11.5775 50.854 11.7802 50.8133 12.0563L50.3697 15.0216C50.3412 15.2149 50.1837 15.3564 49.9994 15.3564H48.0169C47.8197 15.3564 47.6683 15.1706 47.6994 14.964L49.2619 4.50419C49.3029 4.22843 49.5276 4.02539 49.7915 4.02539V4.02575ZM51.8065 9.30983C52.8312 9.30983 53.8904 9.30983 54.1012 7.84607C54.1783 7.33199 54.1169 6.95975 53.914 6.70919C53.574 6.28943 52.9154 6.28943 52.2183 6.28943H51.9512C51.7926 6.28943 51.6579 6.41111 51.6337 6.57635L51.2244 9.30983H51.8065ZM63.3515 7.79891H65.2001C65.3983 7.79891 65.5497 7.98611 65.5194 8.19131L64.519 14.8772C64.4776 15.1534 64.2529 15.356 63.989 15.356H62.3233C62.1251 15.356 61.9737 15.1703 62.0047 14.9626L62.0872 14.4197C62.0872 14.4197 61.174 15.5382 59.5269 15.5382C58.5672 15.5382 57.7619 15.2459 57.1969 14.5446C56.5826 13.7814 56.3322 12.6877 56.5083 11.5436C56.8487 9.25043 58.594 7.61531 60.6379 7.61531C61.5294 7.61531 62.4219 7.82051 62.8222 8.43431L62.9522 8.63231L63.034 8.08583C63.0437 8.00746 63.0812 7.93527 63.1396 7.88255C63.1979 7.82982 63.2732 7.80012 63.3515 7.79891ZM60.5369 13.466C61.6065 13.466 62.4465 12.7169 62.624 11.6009C62.7058 11.0605 62.594 10.5702 62.3108 10.2185C62.0297 9.87107 61.6026 9.68675 61.0772 9.68675C60.024 9.68675 59.1722 10.4604 59.0044 11.5667C58.9187 12.1096 59.0215 12.597 59.2947 12.9394C59.5704 13.2839 60.0008 13.466 60.5369 13.466Z" fill="#179BD7"/>
<path d="M67.3823 4.31254L65.7965 14.9642C65.7655 15.1705 65.9169 15.3566 66.114 15.3566H67.708C67.973 15.3566 68.1976 15.1539 68.2383 14.8778L69.8019 4.41802C69.833 4.21174 69.6815 4.0249 69.4844 4.0249H67.6994C67.5419 4.02562 67.4065 4.1473 67.3823 4.31254Z" fill="#179BD7"/>
<path d="M4.10474 17.3894L4.4001 15.4079L3.74224 15.3917H0.600098L2.78367 0.77068C2.79038 0.726663 2.8118 0.686275 2.84438 0.6562C2.87636 0.626967 2.918 0.610794 2.96117 0.61084H8.25903C10.018 0.61084 11.2319 0.99712 11.8655 1.76032C12.1626 2.11816 12.3519 2.49184 12.4433 2.90368C12.5397 3.33568 12.5412 3.8512 12.4472 4.48048L12.4405 4.52656V4.92976L12.7376 5.1076C12.9876 5.248 13.1869 5.4082 13.3394 5.5918C13.5933 5.8978 13.758 6.2866 13.8272 6.74776C13.8987 7.22188 13.8751 7.78636 13.758 8.42536C13.6222 9.15976 13.403 9.79984 13.1072 10.3236C12.8347 10.806 12.488 11.2064 12.0762 11.5167C11.6833 11.8112 11.2162 12.0351 10.688 12.178C10.1762 12.3188 9.5926 12.3897 8.9526 12.3897H8.54045C8.24545 12.3897 7.95903 12.502 7.73438 12.7029C7.50773 12.91 7.35921 13.1899 7.31403 13.4949L7.28295 13.6734L6.76153 17.1654L6.7376 17.294C6.73117 17.3343 6.72046 17.3548 6.70474 17.3685C6.68964 17.3817 6.67042 17.389 6.65045 17.3894H4.10474Z" fill="#253B80"/>
<path d="M13.0182 4.57324C13.0025 4.68016 12.9843 4.78924 12.9639 4.9012C12.2654 8.68948 9.87466 9.99808 6.82216 9.99808H5.26751C4.8943 9.99808 4.57966 10.2843 4.52144 10.6734L3.72573 16.0032L3.50001 17.5142C3.46216 17.7694 3.64859 17.9998 3.89251 17.9998H6.64966C6.97573 17.9998 7.25323 17.7492 7.30466 17.4094L7.3318 17.2611L7.85073 13.7828L7.8843 13.592C7.93501 13.2507 8.21287 13.0001 8.5393 13.0001H8.9518C11.6229 13.0001 13.7139 11.855 14.325 8.5408C14.5804 7.1566 14.4482 6.00064 13.7725 5.18776C13.5682 4.9426 13.3147 4.7392 13.0182 4.57324Z" fill="#179BD7"/>
<path d="M12.2859 4.26509C12.0631 4.19707 11.8362 4.14392 11.6066 4.10597C11.1877 4.03433 10.7284 4.00049 10.2366 4.00049H6.08372C5.98158 4.00049 5.88444 4.02497 5.79729 4.06889C5.60587 4.16609 5.46372 4.35761 5.42944 4.59197L4.54551 10.5006L4.52051 10.6731C4.57836 10.2843 4.89301 9.99773 5.26658 9.99773H6.82086C9.87372 9.99773 12.2641 8.68841 12.9627 4.90085C12.9837 4.78889 13.0012 4.67981 13.0169 4.57325C12.8332 4.47127 12.6411 4.38551 12.4427 4.31693C12.3908 4.29884 12.3383 4.28156 12.2859 4.26509Z" fill="#222D65"/>
<path d="M5.43057 4.59216C5.44585 4.48169 5.48728 4.37656 5.55137 4.28564C5.61546 4.19472 5.70033 4.12069 5.79879 4.0698C5.88629 4.02552 5.98307 4.0014 6.08522 4.0014H10.2377C10.7299 4.0014 11.1888 4.03524 11.6081 4.10652C11.8921 4.15382 12.1718 4.22425 12.4445 4.31712C12.6509 4.38912 12.8424 4.4748 13.0191 4.57308C13.227 3.17304 13.0174 2.22012 12.3006 1.35684C11.5102 0.4068 10.0841 0 8.25915 0H2.96093C2.58843 0 2.27022 0.2862 2.21272 0.67572L0.00557415 15.4476C-0.0376401 15.7399 0.175931 16.0034 0.45486 16.0034H3.72593L4.54736 10.5012L5.43057 4.59216Z" fill="#253B80"/>
</svg>
