<svg width="20" height="20" viewBox="0 0 20 20" fill="none" xmlns="http://www.w3.org/2000/svg">
<path d="M11.8 1C15.7765 1 19 4.22355 19 8.20001M11.8 4.6C13.7882 4.6 15.4 6.21178 15.4 8.20001M14.0853 19C6.8585 19 1 13.1415 1 5.9147C1 5.51446 1.01797 5.11841 1.05315 4.72733C1.20588 3.02921 2.64705 1.82393 4.32612 1.52787L5.02897 1.40394C6.29422 1.18084 7.50076 2.02567 7.72386 3.29092L8.02081 4.97503C8.303 6.57542 7.23439 8.10155 5.63401 8.38374C5.16461 8.46651 4.89631 8.96764 5.11851 9.38931C6.35115 11.7284 8.27153 13.6488 10.6107 14.8815C11.0323 15.1037 11.5335 14.8354 11.6162 14.366C11.8984 12.7656 13.4246 11.697 15.025 11.9791L16.7091 12.2761C17.9743 12.4992 18.8192 13.7057 18.5961 14.971L18.4721 15.6739C18.1761 17.353 16.9708 18.7941 15.2726 18.9469C14.8816 18.982 14.4855 19 14.0853 19Z" stroke="#550086" stroke-width="2" stroke-linecap="round" stroke-linejoin="round"/>
</svg>
