<svg width="20" height="20" viewBox="0 0 20 20" fill="none" xmlns="http://www.w3.org/2000/svg">
<path d="M5.83366 15.8333H3.66699C2.56242 15.8333 1.66699 14.9379 1.66699 13.8333V3.66663C1.66699 2.56206 2.56242 1.66663 3.66699 1.66663H16.3337C17.4382 1.66663 18.3337 2.56206 18.3337 3.66663V13.8333C18.3337 14.9379 17.4382 15.8333 16.3337 15.8333H14.167M5.00033 11.6666H15.0003M5.83366 11.6666H14.167V18.3333L11.667 17.5L10.0003 18.3333L8.33366 17.5L5.83366 18.3333V11.6666ZM13.3337 4.99996H6.66699C5.74652 4.99996 5.00033 5.74615 5.00033 6.66663V6.66663C5.00033 7.5871 5.74652 8.33329 6.66699 8.33329H13.3337C14.2541 8.33329 15.0003 7.5871 15.0003 6.66663V6.66663C15.0003 5.74615 14.2541 4.99996 13.3337 4.99996Z" stroke="#550086" stroke-width="2" stroke-linecap="round" stroke-linejoin="round"/>
</svg>
