<svg width="32" height="32" viewBox="0 0 32 32" fill="none" xmlns="http://www.w3.org/2000/svg">
<path d="M25.3333 4V6.66667M25.3333 6.66667V9.33333M25.3333 6.66667H22.6667M25.3333 6.66667H28M6.66667 22.6667V25.3333M6.66667 25.3333V28M6.66667 25.3333H4M6.66667 25.3333H9.33333M4 16L8.49249 15.4384C12.124 14.9845 14.9845 12.124 15.4384 8.49249L16 4L16.5616 8.49249C17.0155 12.124 19.876 14.9845 23.5075 15.4384L28 16L23.5075 16.5616C19.876 17.0155 17.0155 19.876 16.5616 23.5075L16 28L15.4384 23.5075C14.9845 19.876 12.124 17.0155 8.49249 16.5616L4 16Z" stroke="#550086" stroke-width="2" stroke-linecap="round" stroke-linejoin="round"/>
</svg>
