<svg width="32" height="32" viewBox="0 0 32 32" fill="none" xmlns="http://www.w3.org/2000/svg">
<path d="M4.6665 13.3333L7.99984 10.6667L10.6665 13.3333L13.3332 10.6667M15.9998 17.3333V17.3333C14.5271 17.3333 13.3332 18.5272 13.3332 20V23.6717C13.3332 25.3258 11.9923 26.6667 10.3382 26.6667V26.6667C8.96394 26.6667 7.76601 25.7313 7.4327 24.3981L4.3167 11.9341C3.42742 8.377 5.76116 4.81756 9.37784 4.21478V4.21478C10.2279 4.07311 11.0979 4.10786 11.9339 4.31686L14.0596 4.84826C15.3335 5.16674 16.6662 5.16674 17.9401 4.84826L20.0657 4.31686C20.9017 4.10786 21.7718 4.07311 22.6218 4.21478V4.21478C26.2385 4.81756 28.5723 8.377 27.683 11.9341L24.567 24.3981C24.2337 25.7313 23.0357 26.6667 21.6615 26.6667V26.6667C20.0074 26.6667 18.6665 25.3258 18.6665 23.6717V20C18.6665 18.5272 17.4726 17.3333 15.9998 17.3333V17.3333Z" stroke="#550086" stroke-width="2" stroke-linecap="round" stroke-linejoin="round"/>
</svg>
