<svg width="36" height="12" viewBox="0 0 36 12" fill="none" xmlns="http://www.w3.org/2000/svg">
<path d="M23.4427 0.0185547C20.8892 0.0185547 18.6071 1.37739 18.6071 3.88793C18.6071 6.76705 22.6544 6.96591 22.6544 8.4123C22.6544 9.02132 21.9745 9.56648 20.8134 9.56648C19.1656 9.56648 17.934 8.80472 17.934 8.80472L17.407 11.3381C17.407 11.3381 18.8258 11.9816 20.7095 11.9816C23.5013 11.9816 25.6982 10.556 25.6982 8.00257C25.6982 4.96026 21.6341 4.76731 21.6341 3.42482C21.6341 2.94774 22.1922 2.42501 23.35 2.42501C24.6563 2.42501 25.7221 2.97902 25.7221 2.97902L26.2378 0.532163C26.2378 0.532163 25.0782 0.0185547 23.4427 0.0185547ZM0.0798989 0.203223L0.0180664 0.57256C0.0180664 0.57256 1.09236 0.774411 2.05994 1.17706C3.30578 1.63878 3.39453 1.90757 3.60435 2.74241L5.89074 11.7912H8.95567L13.6774 0.203223H10.6195L7.58552 8.08192L6.34746 1.40357C6.23392 0.639235 5.6588 0.203223 4.95483 0.203223H0.0798989ZM14.907 0.203223L12.5082 11.7912H15.4242L17.8146 0.203223H14.907ZM31.1704 0.203223C30.4672 0.203223 30.0947 0.589702 29.8213 1.26507L25.5492 11.7912H28.6071L29.1988 10.0368H32.9242L33.2839 11.7912H35.9821L33.6282 0.203223H31.1704ZM31.5681 3.33393L32.4745 7.68229H30.0462L31.5681 3.33393Z" fill="#1434CB"/>
</svg>
