<svg width="32" height="32" viewBox="0 0 32 32" fill="none" xmlns="http://www.w3.org/2000/svg">
<path d="M18.25 9.33333H13.75M18.25 9.33333H19M18.25 9.33333V15.3398C18.25 15.677 18.3353 16.0088 18.4979 16.3042L21.1841 21.1845C21.551 21.8509 21.0688 22.6667 20.3081 22.6667H11.6919C10.9312 22.6667 10.449 21.8509 10.8159 21.1845L13.5021 16.3042C13.6647 16.0088 13.75 15.677 13.75 15.3398V9.33333M13.75 9.33333H13M26.394 9.999C27.4154 11.7643 28 13.8139 28 16C28 19.3137 26.6569 22.3137 24.4853 24.4853C22.3137 26.6569 19.3137 28 16 28C12.6863 28 9.68629 26.6569 7.51472 24.4853C6.77578 23.7464 6.13277 22.9115 5.60596 22.001M26.394 9.999C25.8672 9.08851 25.2242 8.25365 24.4853 7.51472C22.3137 5.34315 19.3137 4 16 4C12.6863 4 9.68629 5.34315 7.51472 7.51472C5.34314 9.68629 4 12.6863 4 16C4 18.1861 4.58459 20.2357 5.60596 22.001M26.394 9.999L5.60596 22.001" stroke="#550086" stroke-width="2" stroke-linecap="round" stroke-linejoin="round"/>
</svg>
